<?xml version="1.0" encoding="utf-8"?>
<!-- Generator: Adobe Illustrator 22.0.1, SVG Export Plug-In . SVG Version: 6.00 Build 0)  -->
<svg version="1.1" id="Слой_1" xmlns="http://www.w3.org/2000/svg" xmlns:xlink="http://www.w3.org/1999/xlink" x="0px" y="0px"
	 viewBox="0 0 85 320" style="enable-background:new 0 0 85 320;" xml:space="preserve">
<style type="text/css">
	.st0{fill:none;}
	.st1{fill:#ECB440;}
</style>
<g>
	<g>

		<path class="st1" d="M21.7,298.5c3.3-2.5,5.3-5.7,7.5-8.5c5.7-7.3,11.3-14.8,16.2-22.7c6-9.7,11.5-19.5,16.1-30
			c3.7-8.6,7-17.4,9-26.6c1.2-5.2,2.1-10.5,2.7-15.9c0.6-5.9,0.8-11.8,0.7-17.8c0-7.9-1-15.7-1.8-23.5c-0.6-5.9-1.5-11.7-2.3-17.5
			c-0.7-5.3-1.7-10.6-3-15.7c-1.6-6.4-3-12.9-4.8-19.3c-2.1-7.6-4.2-15.2-6.5-22.8c-4.6-15.5-10.4-30.5-16.4-45.5
			c-2.8-7.2-5.7-14.4-9.2-21.7c0-2.3,0-5,0-8.3c3.5,5.4,5.4,10.8,7.5,15.9c3,7.3,6.1,14.6,8.8,22c4.3,11.8,8.8,23.6,12.6,35.6
			c4,12.6,7.4,25.4,10.7,38.2c1.4,5.6,2.1,11.5,3.4,17.2c1.2,5.4,1.5,10.9,2.8,16.3c0.7,2.8,0.7,5.8,1,8.7
			c0.9,10.9,1.9,21.8,1.1,32.7c-0.7,9.4-2.3,18.7-4.9,27.8c-3.7,12.8-9,25-15.4,36.6c-5.6,10.3-12.1,20.1-19.2,29.4
			c-4.6,6-9.2,11.9-14.6,17.7c1.4,1.5,2.6,3,4.1,4.6c-5.2,2.7-11,3.3-16.9,5.7c1.7-6.5,3.2-12.5,5.2-18.8
			C18.2,294.7,19.8,296.4,21.7,298.5z"/>
	</g>
</g>
</svg>
